<svg xmlns="http://www.w3.org/2000/svg" width="20" height="20" viewBox="0 0 20 20">
  <g id="Quickswap_OLD_" data-name="Quickswap (OLD)" transform="translate(0.33 0.11)">
    <g id="Ellipse_528" transform="translate(-0.33 -0.11)">
      <circle id="椭圆_1151" data-name="椭圆 1151" cx="10" cy="10" r="10" transform="translate(0 0)" fill="#fff"/>
    </g>
    <g id="Path_11311" transform="translate(1.392 1.612)">
      <path id="path_15919" data-name="path 15919" d="M56.887,45.463a8.286,8.286,0,0,0-2.46-1.716,2.318,2.318,0,0,0,.232-.8l-.04-.017a6.572,6.572,0,0,1-.436.717,8.928,8.928,0,0,1-.573.741l.472.005a4.273,4.273,0,0,1-2.3,1.8c0,.387-.6,1.072-.6,1.072a6.229,6.229,0,0,0,1.891-.921c4.068.187,5.06,2.569,5.339,3.019.04.064.009.124,0,.114A3.731,3.731,0,0,0,56.1,47.689l.43.53a9.654,9.654,0,0,0-3.425-.924,7.8,7.8,0,0,1,4.371,2.516,7.7,7.7,0,0,1,1.5,3.434c.01.068.015.121.018.158a8.3,8.3,0,0,0,.278-2.086,8.192,8.192,0,0,0-2.388-5.855Zm-4.414-2.322-.118-.02-.1-.016h-.015l-.182-.025h-.012l-.1-.012-.2-.02h-.024l-.074-.006q-.116-.01-.234-.015c-.068,0-.136-.006-.2-.008h-.325c-.105,0-.21,0-.314.01l-.1.006A8.283,8.283,0,0,0,43,49.135a8.369,8.369,0,0,0-.276,2.152,3.115,3.115,0,0,0,.026.477,1.472,1.472,0,0,0,.048.208.1.1,0,0,0,.006.023,6.016,6.016,0,0,0,.561,1.24,6.375,6.375,0,0,0,.469.709,3.225,3.225,0,0,0,.23.282l.025.028.03.033c.029.031.058.064.087.093l.019.02a5.3,5.3,0,0,0,1.454,1.035,7.008,7.008,0,0,0,2.648.69,6.446,6.446,0,0,0,.959-.007h.047a3.916,3.916,0,0,0,1.01-.213,2.417,2.417,0,0,0,.759-.395,2.952,2.952,0,0,0,.727-.774,2.769,2.769,0,0,0,.458-1.457,3.053,3.053,0,0,0-2.929-2.76h0c-.055-.005-.112-.009-.169-.012h-.324l-.094,0-.08.006-.071.006c-.047,0-.094.01-.141.017q-.18.025-.366.064c-1.134.26-.739,1.168-.726,1.2a3.7,3.7,0,0,1-.788-.159l-.012,0-.05-.017a2.16,2.16,0,0,1-.74-.436h0l-.02-.02a2.024,2.024,0,0,1-.355-.468h0a5.328,5.328,0,0,0-.453.318,5.926,5.926,0,0,1-.068-1.763c.138-.666,1.2-1.464,1.2-1.464s-.132.684.476.69,1.317-.95,1.344-.867.581.09.581.09-.25,0-.466-.446.457-1.1,1.572-1.5a5.725,5.725,0,0,0,1.987-1.36c.277.031.352.806.352.806A8.571,8.571,0,0,0,53.9,43.551h0a8.183,8.183,0,0,0-1.43-.41h0ZM50.31,48.724v0" transform="translate(-42.72 -42.93)" fill="#2188c6"/>
    </g>
    <g id="Path_11313" transform="translate(1.424 7.409)">
      <path id="path_15920" data-name="path 15920" d="M56.707,196.575a5.14,5.14,0,0,1-2.988,1.9q-.313.064-.631.106l-.085.01-.081.009H52.9a9.637,9.637,0,0,1-4.344-.6,7.1,7.1,0,0,1-1.377-.711,8.4,8.4,0,0,1-1.28-1.06,9.2,9.2,0,0,1-2.367-5.316,1.472,1.472,0,0,0,.048.208,5.607,5.607,0,0,0,.568,1.223,6.481,6.481,0,0,0,.468.709,3.362,3.362,0,0,0,.23.281l.025.028.03.034.087.093.019.02a5.291,5.291,0,0,0,1.454,1.035,7.007,7.007,0,0,0,2.648.691,6.448,6.448,0,0,0,.959-.007h.048a3.951,3.951,0,0,0,1.01-.213,2.407,2.407,0,0,0,.759-.394,2.949,2.949,0,0,0,.726-.774,2.772,2.772,0,0,0,.459-1.458,3.121,3.121,0,0,0-3.306-2.738c-.044,0-.088,0-.132,0h-.093l-.09.008c-.05,0-.1.01-.15.016h-.012c-.127.017-.255.04-.382.07-.662.152-.8.525-.8.816a1.018,1.018,0,0,0,.077.382h-.006a3.723,3.723,0,0,1-.788-.159l-.012,0-.05-.017a2.15,2.15,0,0,1-.74-.437h0l-.02-.019a1.882,1.882,0,0,1-.2-.233,2.269,2.269,0,0,1-.152-.236,6.966,6.966,0,0,1,3.46-1.069l.127-.005q.259-.008.519,0,.409.013.821.064a6.808,6.808,0,0,1,1.224.255h0v0h0a2.829,2.829,0,0,0-.355-.5c-.169-.2-.611-.711-.9-.707h0l.086-.005q.269-.013.542,0a6.234,6.234,0,0,1,4.606,2.232l.022.024.027.035a6.582,6.582,0,0,1,.808,1.4h0a7.909,7.909,0,0,1,.41,1.825,4.43,4.43,0,0,1-.9,3.193Z" transform="translate(-43.53 -187.863)" fill="#162b4e"/>
    </g>
    <g id="Path_11315" transform="translate(4.087 7.405)">
      <path id="path_15921" data-name="path 15921" d="M120.614,196.488a5.14,5.14,0,0,1-2.988,1.9q-.313.064-.63.106l-.085.01-.081.009h-.025l-.171.015a9.224,9.224,0,0,1-1.688-.023,7.3,7.3,0,0,1-2.484-.594l-.064-.034c.106-.005.214,0,.322,0a5.747,5.747,0,0,0,3.821-1.51,5.185,5.185,0,0,0,1.819-3.776c0-.147-.007-.3-.02-.446l-.006-.068-.028.064a2.907,2.907,0,0,1-1.789,1.608l-.018.006a2.552,2.552,0,0,0,.356-.752,2.761,2.761,0,0,0,.115-.711,3.081,3.081,0,0,0-3.044-2.729H113.9l-.1,0h-.361a.893.893,0,0,0-.091.008c-.05,0-.1.01-.15.016h-.012c-.127.016-.258.04-.39.07-1.133.259-.739,1.168-.726,1.2h0a2.245,2.245,0,0,1-1.974-1.109,6.968,6.968,0,0,1,3.465-1.069l.127-.005q.259-.008.519,0,.407.013.816.064a6.705,6.705,0,0,1,1.229.255h0a2.9,2.9,0,0,0-.355-.5c-.168-.195-.606-.7-.9-.707H115c.03,0,.064,0,.092-.005q.27-.013.542,0a6.233,6.233,0,0,1,4.6,2.232l.022.024c.011.012.022.023.032.035a4.12,4.12,0,0,1,.808,1.4h0a7.908,7.908,0,0,1,.409,1.825,4.427,4.427,0,0,1-.892,3.2Z" transform="translate(-110.1 -187.773)" fill="#21326f"/>
    </g>
    <path id="path_15922" data-name="path 15922" d="M258.142,18.04s-.818,2.155-1.368,2.4.476.037.476.037l-2.106,1.612a5.4,5.4,0,0,1-.684,1.252,4.622,4.622,0,0,0,2.784-1.793A5.2,5.2,0,0,0,258.142,18.04Z" transform="translate(-244.598 -17.424)" fill="#162b4e"/>
    <path id="path_15923" data-name="path 15923" d="M270.563,21.016a8.122,8.122,0,0,0,2.986-3.3,6.333,6.333,0,0,1-1.265,2.386l.534-.086a5.132,5.132,0,0,1-2.312,1.894,5.67,5.67,0,0,1,.057-.9Z" transform="translate(-260.003 -17.117)" fill="#fff"/>
    <g id="group_25681" data-name="group 25681" transform="translate(4.064 7.496)">
      <path id="path_15924" data-name="path 15924" d="M109.916,194.967a.234.234,0,0,1,.294.167l.008,0c.021-.127.024-.418-.234-.349s-.465.494-.465.494l.035-.007a.879.879,0,0,1,.362-.3Z" transform="translate(-109.52 -194.584)" fill="#3a9dd7"/>
      <path id="path_15925" data-name="path 15925" d="M110,190.058c-.277.063-.489.682-.489.682l.036-.066c.07-.123.235-.377.429-.428s.244.116.242.252a.012.012,0,0,0,0-.006C110.246,190.325,110.344,189.98,110,190.058Z" transform="translate(-109.51 -190.047)" fill="#162b4e"/>
    </g>
    <g id="group_25682" data-name="group 25682" transform="translate(7.627 4.578)">
      <path id="path_15926" data-name="path 15926" d="M198.6,118.482a.634.634,0,0,1,.262-.562,7.065,7.065,0,0,1,1.027-.452c.275-.122.608-.292.613-.368a1.66,1.66,0,0,1-.364.82A1.855,1.855,0,0,1,198.6,118.482Z" transform="translate(-198.601 -117.1)" fill="#162b4e"/>
      <path id="path_15927" data-name="path 15927" d="M198.963,127.605a1.6,1.6,0,0,0,.6-.368,1.215,1.215,0,0,0,.255-.387.316.316,0,0,0,.024-.13,6.419,6.419,0,0,0-.995.438.631.631,0,0,0-.262.559,2.816,2.816,0,0,0,.373-.112Z" transform="translate(-198.588 -126.335)" fill="#2797d2"/>
    </g>
    <path id="path_15928" data-name="path 15928" d="M307.751,154.126a4.856,4.856,0,0,0-2.132-.811,8.813,8.813,0,0,0-3.179-1.37,9.945,9.945,0,0,1,3.425.924l-.447-.545s.687-.056,1.807,1.129c.731.773.526.673.526.673Z" transform="translate(-290.659 -145.968)" fill="#162b4e"/>
  </g>
</svg>
